<mxfile host="app.diagrams.net" modified="2020-05-25T01:42:37.667Z" agent="5.0 (Macintosh; Intel Mac OS X 10_12_6) AppleWebKit/537.36 (KHTML, like Gecko) Chrome/81.0.4044.138 Safari/537.36" etag="jNIlUCoSLW-lJi1fB-tn" version="13.0.8" type="github">
  <diagram name="Page-1" id="b520641d-4fe3-3701-9064-5fc419738815">
    <mxGraphModel dx="946" dy="597" grid="1" gridSize="10" guides="1" tooltips="1" connect="1" arrows="1" fold="1" page="1" pageScale="1" pageWidth="1100" pageHeight="850" background="#ffffff" math="0" shadow="0">
      <root>
        <mxCell id="0" />
        <mxCell id="1" parent="0" />
        <mxCell id="21ea969265ad0168-36" style="edgeStyle=orthogonalEdgeStyle;html=1;labelBackgroundColor=none;startFill=0;startSize=8;endFill=1;endSize=8;fontFamily=Verdana;fontSize=12;entryX=0;entryY=0.5;entryDx=0;entryDy=0;" parent="1" source="21ea969265ad0168-6" target="BLEFrle1ULVc5vWn8EwS-2" edge="1">
          <mxGeometry relative="1" as="geometry">
            <mxPoint x="390" y="120" as="targetPoint" />
            <Array as="points">
              <mxPoint x="280" y="122" />
              <mxPoint x="280" y="122" />
            </Array>
          </mxGeometry>
        </mxCell>
        <mxCell id="rdV9_6l6kC6E4xn4P61S-1" value="go to&amp;nbsp;&lt;br&gt;Inventory list" style="text;html=1;strokeColor=none;fillColor=none;align=center;verticalAlign=middle;whiteSpace=wrap;rounded=0;" parent="1" vertex="1">
          <mxGeometry x="300" y="80" width="40" height="20" as="geometry" />
        </mxCell>
        <mxCell id="rdV9_6l6kC6E4xn4P61S-27" value="" style="ellipse;html=1;shape=startState;fillColor=#000000;strokeColor=#ff0000;" parent="1" vertex="1">
          <mxGeometry x="50" y="97" width="30" height="30" as="geometry" />
        </mxCell>
        <mxCell id="rdV9_6l6kC6E4xn4P61S-28" value="" style="edgeStyle=orthogonalEdgeStyle;html=1;verticalAlign=bottom;endArrow=open;endSize=8;strokeColor=#ff0000;" parent="1" source="rdV9_6l6kC6E4xn4P61S-27" edge="1">
          <mxGeometry relative="1" as="geometry">
            <mxPoint x="140" y="112" as="targetPoint" />
          </mxGeometry>
        </mxCell>
        <mxCell id="BLEFrle1ULVc5vWn8EwS-14" value="" style="endArrow=classic;html=1;entryX=-0.006;entryY=0.141;entryDx=0;entryDy=0;entryPerimeter=0;" parent="1" target="BLEFrle1ULVc5vWn8EwS-4" edge="1">
          <mxGeometry width="50" height="50" relative="1" as="geometry">
            <mxPoint x="530" y="110" as="sourcePoint" />
            <mxPoint x="648" y="110" as="targetPoint" />
          </mxGeometry>
        </mxCell>
        <mxCell id="BLEFrle1ULVc5vWn8EwS-16" value="select invoice" style="text;html=1;strokeColor=none;fillColor=none;align=center;verticalAlign=middle;whiteSpace=wrap;rounded=0;" parent="1" vertex="1">
          <mxGeometry x="570" y="74" width="40" height="20" as="geometry" />
        </mxCell>
        <mxCell id="_e-Dn9jZGVwWyQQVkrqx-2" value="[InvalidInput]" style="text;html=1;strokeColor=none;fillColor=none;align=center;verticalAlign=middle;whiteSpace=wrap;rounded=0;" parent="1" vertex="1">
          <mxGeometry x="800" y="30" width="40" height="20" as="geometry" />
        </mxCell>
        <mxCell id="BLEFrle1ULVc5vWn8EwS-9" value="" style="endArrow=classic;html=1;" parent="1" edge="1">
          <mxGeometry width="50" height="50" relative="1" as="geometry">
            <mxPoint x="820" y="102" as="sourcePoint" />
            <mxPoint x="860" y="186" as="targetPoint" />
            <Array as="points">
              <mxPoint x="860" y="102" />
            </Array>
          </mxGeometry>
        </mxCell>
        <mxCell id="21ea969265ad0168-6" value="Dashboard" style="swimlane;html=1;fontStyle=0;childLayout=stackLayout;horizontal=1;startSize=26;fillColor=#e0e0e0;horizontalStack=0;resizeParent=1;resizeLast=0;collapsible=1;marginBottom=0;swimlaneFillColor=#ffffff;align=center;rounded=1;shadow=0;comic=0;labelBackgroundColor=none;strokeWidth=1;fontFamily=Verdana;fontSize=12" parent="1" vertex="1">
          <mxGeometry x="140" y="74" width="130" height="76" as="geometry" />
        </mxCell>
        <mxCell id="21ea969265ad0168-8" value="&lt;br&gt;idle" style="text;html=1;strokeColor=none;fillColor=none;spacingLeft=4;spacingRight=4;whiteSpace=wrap;overflow=hidden;rotatable=0;points=[[0,0.5],[1,0.5]];portConstraint=eastwest;" parent="21ea969265ad0168-6" vertex="1">
          <mxGeometry y="26" width="130" height="44" as="geometry" />
        </mxCell>
        <mxCell id="BLEFrle1ULVc5vWn8EwS-1" value="Expenses Page displaying" style="swimlane;html=1;fontStyle=0;childLayout=stackLayout;horizontal=1;startSize=26;fillColor=#e0e0e0;horizontalStack=0;resizeParent=1;resizeLast=0;collapsible=1;marginBottom=0;swimlaneFillColor=#ffffff;align=center;rounded=1;shadow=0;comic=0;labelBackgroundColor=none;strokeWidth=1;fontFamily=Verdana;fontSize=12" parent="1" vertex="1">
          <mxGeometry x="360" y="74" width="170" height="76" as="geometry" />
        </mxCell>
        <mxCell id="BLEFrle1ULVc5vWn8EwS-2" value="display Invoices" style="text;html=1;strokeColor=none;fillColor=none;spacingLeft=4;spacingRight=4;whiteSpace=wrap;overflow=hidden;rotatable=0;points=[[0,0.5],[1,0.5]];portConstraint=eastwest;" parent="BLEFrle1ULVc5vWn8EwS-1" vertex="1">
          <mxGeometry y="26" width="170" height="44" as="geometry" />
        </mxCell>
        <mxCell id="BLEFrle1ULVc5vWn8EwS-3" value="Invoice selected" style="swimlane;html=1;fontStyle=0;childLayout=stackLayout;horizontal=1;startSize=26;fillColor=#e0e0e0;horizontalStack=0;resizeParent=1;resizeLast=0;collapsible=1;marginBottom=0;swimlaneFillColor=#ffffff;align=center;rounded=1;shadow=0;comic=0;labelBackgroundColor=none;strokeWidth=1;fontFamily=Verdana;fontSize=12" parent="1" vertex="1">
          <mxGeometry x="660" y="74" width="160" height="90" as="geometry" />
        </mxCell>
        <mxCell id="BLEFrle1ULVc5vWn8EwS-4" value="do: select invoice&lt;br&gt;exit:invoice form displayed" style="text;html=1;strokeColor=none;fillColor=none;spacingLeft=4;spacingRight=4;whiteSpace=wrap;overflow=hidden;rotatable=0;points=[[0,0.5],[1,0.5]];portConstraint=eastwest;" parent="BLEFrle1ULVc5vWn8EwS-3" vertex="1">
          <mxGeometry y="26" width="160" height="64" as="geometry" />
        </mxCell>
        <mxCell id="Za8N9rrHKWuCIieLVCjy-16" value="" style="ellipse;html=1;shape=endState;fillColor=#000000;strokeColor=#ff0000;" parent="1" vertex="1">
          <mxGeometry x="840" y="660" width="30" height="30" as="geometry" />
        </mxCell>
        <mxCell id="Za8N9rrHKWuCIieLVCjy-19" style="edgeStyle=orthogonalEdgeStyle;html=1;labelBackgroundColor=none;startFill=0;startSize=8;endFill=1;endSize=8;fontFamily=Verdana;fontSize=12;" parent="1" edge="1">
          <mxGeometry relative="1" as="geometry">
            <mxPoint x="854.5" y="500" as="targetPoint" />
            <Array as="points">
              <mxPoint x="854.5" y="410" />
            </Array>
            <mxPoint x="854.5" y="410" as="sourcePoint" />
          </mxGeometry>
        </mxCell>
        <mxCell id="pF-UwBFgkB0Nw0dVT4yW-2" value="" style="edgeStyle=segmentEdgeStyle;endArrow=classic;html=1;entryX=0.681;entryY=0;entryDx=0;entryDy=0;entryPerimeter=0;" parent="1" target="BLEFrle1ULVc5vWn8EwS-3" edge="1">
          <mxGeometry width="50" height="50" relative="1" as="geometry">
            <mxPoint x="810" y="100" as="sourcePoint" />
            <mxPoint x="770" y="50" as="targetPoint" />
            <Array as="points">
              <mxPoint x="830" y="100" />
              <mxPoint x="830" y="50" />
              <mxPoint x="770" y="50" />
            </Array>
          </mxGeometry>
        </mxCell>
        <mxCell id="pF-UwBFgkB0Nw0dVT4yW-3" value="edit data" style="text;html=1;strokeColor=none;fillColor=none;align=center;verticalAlign=middle;whiteSpace=wrap;rounded=0;" parent="1" vertex="1">
          <mxGeometry x="860" y="130" width="40" height="20" as="geometry" />
        </mxCell>
        <mxCell id="pF-UwBFgkB0Nw0dVT4yW-4" value="" style="endArrow=classic;html=1;" parent="1" edge="1">
          <mxGeometry width="50" height="50" relative="1" as="geometry">
            <mxPoint x="850" y="270" as="sourcePoint" />
            <mxPoint x="850" y="360" as="targetPoint" />
          </mxGeometry>
        </mxCell>
        <mxCell id="pF-UwBFgkB0Nw0dVT4yW-10" style="edgeStyle=orthogonalEdgeStyle;html=1;labelBackgroundColor=none;startFill=0;startSize=8;endFill=1;endSize=8;fontFamily=Verdana;fontSize=12;" parent="1" edge="1">
          <mxGeometry relative="1" as="geometry">
            <mxPoint x="854.5" y="660" as="targetPoint" />
            <Array as="points">
              <mxPoint x="854.5" y="570" />
            </Array>
            <mxPoint x="854.5" y="610" as="sourcePoint" />
          </mxGeometry>
        </mxCell>
        <mxCell id="Za8N9rrHKWuCIieLVCjy-8" value="Invoice to be modified" style="swimlane;html=1;fontStyle=0;childLayout=stackLayout;horizontal=1;startSize=26;fillColor=#e0e0e0;horizontalStack=0;resizeParent=1;resizeLast=0;collapsible=1;marginBottom=0;swimlaneFillColor=#ffffff;align=center;rounded=1;shadow=0;comic=0;labelBackgroundColor=none;strokeWidth=1;fontFamily=Verdana;fontSize=12" parent="1" vertex="1">
          <mxGeometry x="770" y="190" width="150" height="80" as="geometry" />
        </mxCell>
        <mxCell id="Za8N9rrHKWuCIieLVCjy-9" value="do:edit data&lt;br&gt;exit: save invoice" style="text;html=1;strokeColor=none;fillColor=none;align=center;verticalAlign=middle;whiteSpace=wrap;rounded=0;" parent="Za8N9rrHKWuCIieLVCjy-8" vertex="1">
          <mxGeometry y="26" width="150" height="44" as="geometry" />
        </mxCell>
        <mxCell id="D7gzjmoJwAs0fPTZm3NS-1" value="save data[editSuccessful]" style="text;html=1;strokeColor=none;fillColor=none;align=center;verticalAlign=middle;whiteSpace=wrap;rounded=0;" parent="1" vertex="1">
          <mxGeometry x="890" y="290" width="40" height="20" as="geometry" />
        </mxCell>
        <mxCell id="D7gzjmoJwAs0fPTZm3NS-4" value="cancel" style="text;html=1;strokeColor=none;fillColor=none;align=center;verticalAlign=middle;whiteSpace=wrap;rounded=0;" parent="1" vertex="1">
          <mxGeometry x="570" y="240" width="40" height="20" as="geometry" />
        </mxCell>
        <mxCell id="pF-UwBFgkB0Nw0dVT4yW-5" value="Invoice Saved" style="swimlane;html=1;fontStyle=0;childLayout=stackLayout;horizontal=1;startSize=26;fillColor=#e0e0e0;horizontalStack=0;resizeParent=1;resizeLast=0;collapsible=1;marginBottom=0;swimlaneFillColor=#ffffff;align=center;rounded=1;shadow=0;comic=0;labelBackgroundColor=none;strokeWidth=1;fontFamily=Verdana;fontSize=12" parent="1" vertex="1">
          <mxGeometry x="780" y="360" width="150" height="80" as="geometry" />
        </mxCell>
        <mxCell id="pF-UwBFgkB0Nw0dVT4yW-6" value="do: update invoice with changes made" style="text;html=1;strokeColor=none;fillColor=none;align=center;verticalAlign=middle;whiteSpace=wrap;rounded=0;" parent="pF-UwBFgkB0Nw0dVT4yW-5" vertex="1">
          <mxGeometry y="26" width="150" height="44" as="geometry" />
        </mxCell>
        <mxCell id="pF-UwBFgkB0Nw0dVT4yW-8" value="Expenses page updated" style="swimlane;html=1;fontStyle=0;childLayout=stackLayout;horizontal=1;startSize=26;fillColor=#e0e0e0;horizontalStack=0;resizeParent=1;resizeLast=0;collapsible=1;marginBottom=0;swimlaneFillColor=#ffffff;align=center;rounded=1;shadow=0;comic=0;labelBackgroundColor=none;strokeWidth=1;fontFamily=Verdana;fontSize=12" parent="1" vertex="1">
          <mxGeometry x="785" y="500" width="155" height="80" as="geometry" />
        </mxCell>
        <mxCell id="pF-UwBFgkB0Nw0dVT4yW-9" value="display new updates on&lt;br&gt;expenses page" style="text;html=1;strokeColor=none;fillColor=none;align=center;verticalAlign=middle;whiteSpace=wrap;rounded=0;" parent="pF-UwBFgkB0Nw0dVT4yW-8" vertex="1">
          <mxGeometry y="26" width="155" height="44" as="geometry" />
        </mxCell>
        <mxCell id="D7gzjmoJwAs0fPTZm3NS-12" value="" style="edgeStyle=segmentEdgeStyle;endArrow=classic;html=1;entryX=0.25;entryY=1;entryDx=0;entryDy=0;exitX=0;exitY=0.25;exitDx=0;exitDy=0;" parent="1" source="Za8N9rrHKWuCIieLVCjy-9" target="BLEFrle1ULVc5vWn8EwS-1" edge="1">
          <mxGeometry width="50" height="50" relative="1" as="geometry">
            <mxPoint x="550" y="340" as="sourcePoint" />
            <mxPoint x="400" y="210" as="targetPoint" />
            <Array as="points">
              <mxPoint x="403" y="227" />
            </Array>
          </mxGeometry>
        </mxCell>
      </root>
    </mxGraphModel>
  </diagram>
</mxfile>
